<?xml version="1.0" encoding="utf-8"?>
<!-- Generator: Adobe Illustrator 16.0.0, SVG Export Plug-In . SVG Version: 6.00 Build 0)  -->
<!DOCTYPE svg PUBLIC "-//W3C//DTD SVG 1.1//EN" "http://www.w3.org/Graphics/SVG/1.1/DTD/svg11.dtd">
<svg version="1.1" id="Layer_1" xmlns="http://www.w3.org/2000/svg" xmlns:xlink="http://www.w3.org/1999/xlink" x="0px" y="0px"
	 width="300px" height="66px" viewBox="0 0 300 66" enable-background="new 0 0 300 66" xml:space="preserve">
<g>
	<path fill="#FFFFFF" d="M29.6982,20.4644c0.3027-1.231,0.4941-2.6436,0.5752-4.2383l5.9639,0.9082
		c-0.2827,2.5229-0.7568,4.7129-1.4229,6.5693c0.9482,1.3525,1.4229,2.876,1.4229,4.5713v17.6196
		c0,2.3008-0.666,4.0059-1.998,5.1152c-1.2314,1.0293-2.9873,1.5449-5.2676,1.5449c-2.2808,0-4.0415-0.3984-5.2827-1.1963
		c-1.2412-0.7969-2.1646-2.1748-2.77-4.1318c-0.6055-1.958-1.3828-3.4258-2.3311-4.4053c-0.9487-0.9785-2.4521-1.4678-4.5107-1.4678
		c-0.9893,0-1.5742,0.4746-1.7559,1.4219c1.917,0,3.3398,0.3848,4.2686,1.1504c0.8677,0.707,1.3018,1.7461,1.3018,3.1191
		c0.04,0.3428,0.0605,0.666,0.0605,0.9688c0,1.3516-0.4038,2.4014-1.2109,3.1484c-0.9893,0.9082-2.5635,1.3721-4.7227,1.3926
		c-2.5029-0.0605-4.3799-0.7363-5.6309-2.0293c-1.292-1.3105-1.9375-3.2695-1.9375-5.873c0-2.2188,0.792-4.0508,2.3765-5.4941
		c1.584-1.4434,4.001-2.1641,7.2505-2.1641c2.9063,0,5.1162,0.6406,6.6299,1.9219s2.7144,3.1484,3.6025,5.6006
		c0.8877,2.4521,1.6445,3.6787,2.2705,3.6787c0.6255,0,0.9385-0.7676,0.9385-2.3008V29.6978
		c-1.9375,2.0791-5.0557,3.1182-9.3545,3.1182c-4.7227,0-8.189-0.5244-10.3989-1.5742c-2.21-1.0493-3.3149-2.8857-3.3149-5.5098
		c0-2.6235,1.105-4.6113,3.3149-5.9639c2.21-1.3521,5.6763-2.0283,10.3989-2.0283C22.7856,17.7397,26.6304,18.6479,29.6982,20.4644z
		 M12.5635,50.0117c1.4126,0,2.1191-0.707,2.1191-2.1191c0-1.4131-0.7065-2.1191-2.1191-2.1191
		c-1.4131,0-2.1191,0.7061-2.1191,2.1191C10.4443,49.3047,11.1504,50.0117,12.5635,50.0117z M26.3984,25.0659
		c-0.666-0.8271-1.4683-1.5288-2.4067-2.104s-2.8813-0.8628-5.8276-0.8628c-1.7559,0-3.0273,0.3887-3.8145,1.1655
		c-0.7871,0.7773-1.1807,1.5996-1.1807,2.4673c0,0.8682,0.3936,1.5391,1.1807,2.0132c0.7871,0.4746,2.0586,0.7114,3.8145,0.7114
		c2.9463,0,4.874-0.2822,5.7822-0.8477C24.8545,27.0439,25.6719,26.1963,26.3984,25.0659z"/>
	<path fill="#FFFFFF" d="M67.3281,19.2534c0-3.5317,1.2813-7.2148,3.8447-11.0498l6.1758,2.1191
		c-0.8682,2.0186-1.3018,4.9951-1.3018,8.9307v21.7974c0,7.6689-5.0459,11.5039-15.1367,11.5039
		c-10.0913,0-15.1367-3.6641-15.1367-10.9902c0-3.5918,1.1299-6.9521,3.3906-10.0806c0.7666-1.0493,1.4023-2.0483,1.9072-2.9971
		c-1.8569-0.02-3.2295-0.5146-4.1172-1.4834c-0.7871-0.8677-1.1807-2.1089-1.1807-3.7236c0-1.7959,0.4238-3.1484,1.2715-4.0566
		c0.8877-0.9888,2.2603-1.4834,4.1172-1.4834c3.0474,0,5.0757,0.4844,6.085,1.4531c0.9482,0.9287,1.4229,2.291,1.4229,4.0869
		c0,2.9668-0.6963,6.0801-2.0889,9.3394c-1.3926,3.2598-2.0889,6.2422-2.0889,8.9453c0,4.4199,2.1392,6.6309,6.418,6.6309
		c4.2783,0,6.418-2.3818,6.418-7.1445V19.2534z M50.708,25.2173c1.231,0,1.8467-0.6455,1.8467-1.9375
		c0-1.2715-0.6157-1.9072-1.8467-1.9072c-1.2314,0-1.8467,0.6357-1.8467,1.9072C48.8613,24.5718,49.4766,25.2173,50.708,25.2173z"/>
	<path fill="#FFFFFF" d="M100.8105,42.4434c0.9482,0.9688,1.4229,2.4219,1.4229,4.3594c0,1.917-0.4844,3.3594-1.4531,4.3281
		c-0.9487,0.9492-2.7046,1.4238-5.2676,1.4238c-2.5835,0-4.8843-0.6211-6.9023-1.8623c-2.0186-1.2412-3.0273-3.5967-3.0273-7.0693
		v-3.1777c0-2.9668,2.1494-5.1875,6.4482-6.6606c-4.2988-1.332-6.4482-3.4512-6.4482-6.3574c0-3.1685,1.2109-5.5601,3.6328-7.1748
		c2.5225-1.6748,6.3574-2.5127,11.5039-2.5127c4.9648,0,8.6982,0.9287,11.2012,2.7852c2.6235,1.9175,3.9355,4.8237,3.9355,8.7188
		v23.311h-8.7188v-23.311c0-2.563-0.5098-4.3945-1.5288-5.4946c-1.0195-1.0996-2.6489-1.6499-4.8892-1.6499
		c-2.2002,0-3.8198,0.4292-4.8589,1.2866c-1.0396,0.8579-1.5591,2.2051-1.5591,4.0415c0,2.8257,1.6348,4.2383,4.9043,4.2383h0.9082
		c1.0088,0,1.5137,0.6763,1.5137,2.0283c0,1.353-0.5049,2.0288-1.5137,2.0288h-0.9082c-3.2695,0-4.9043,1.5742-4.9043,4.7227v1.4531
		c0.9282-0.6055,2.0078-0.9082,3.2393-0.9082C98.752,40.9902,99.8418,41.4746,100.8105,42.4434z M98.3887,48.5879
		c0.4438-0.3828,0.666-0.9883,0.666-1.8164c0-0.7266-0.1719-1.2813-0.5146-1.6641c-0.3838-0.4238-0.9688-0.6367-1.7559-0.6367
		c-1.5342,0-2.3008,0.7676-2.3008,2.3008c0,0.9082,0.2725,1.5449,0.8174,1.9082c0.3633,0.2422,0.8574,0.3633,1.4834,0.3633
		C97.4702,49.043,98.0049,48.8906,98.3887,48.5879z"/>
</g>
<g>
</g>
<g>
</g>
<g>
</g>
<g>
</g>
<g>
</g>
<g>
</g>
</svg>
